<?xml version="1.0" encoding="UTF-8"?>
<svg width="150px" height="67px" viewBox="0 0 150 67" version="1.1" xmlns="http://www.w3.org/2000/svg" xmlns:xlink="http://www.w3.org/1999/xlink">
    <!-- Generator: sketchtool 52.5 (67469) - http://www.bohemiancoding.com/sketch -->
    <title>AD39CB15-2DD4-41CA-9361-CE0689FAFBC6</title>
    <desc>Created with sketchtool.</desc>
    <g id="Desktop" stroke="none" stroke-width="1" fill="none" fill-rule="evenodd">
        <g id="10_01_Full_Gosterim" transform="translate(-936.000000, -6482.000000)">
            <g id="FOOTER" transform="translate(0.000000, 5964.000000)">
                <g id="telefon_sosyalmedya" transform="translate(936.000000, 518.000000)">
                    <g id="cagri-mer">
                        <g id="Group-3">
                            <polygon id="Clip-2" points="0 0.0332095497 59.772196 0.0332095497 59.772196 66.4188379 0 66.4188379"></polygon>
                            <path d="M38.8849587,63.0923102 C38.9865933,61.1132006 36.8354747,59.3898942 34.0798512,59.2435927 C32.0480429,59.135886 30.2539711,59.9140666 29.4108458,61.1239712 C16.5483234,58.8343074 6.65971808,46.84566 6.65971808,32.2693604 C6.65971808,16.0406613 18.9283408,3.02072269 33.900444,3.02072269 C43.5848964,3.02072269 52.1831841,8.46708883 56.9723835,16.7048523 C57.2083526,17.2083808 57.7147581,17.5557348 58.3007037,17.5557348 C59.1137805,17.5557348 59.772196,16.8861584 59.772196,16.061305 C59.772196,15.7184389 59.6590723,15.4024994 59.468176,15.1511839 C54.1416388,6.08677192 44.7161338,0.032760772 33.900444,0.032760772 C23.8942961,0.032760772 15.0671095,5.21614318 9.58414342,13.1711767 C9.36143106,13.4278775 9.16346452,13.6845783 9.01940852,13.9107623 C-0.64294936,11.3949145 -2.99998846,36.9896042 4.18690391,37.9607591 C6.43700573,51.4258852 16.5253452,62.0583264 29.31363,64.1370647 C30.0560046,65.381974 31.7254634,66.3037634 33.7095477,66.4087774 C36.4651712,66.5559765 38.7824403,65.0705223 38.8849587,63.0923102 M47.9286711,46.100689 C48.7514695,46.100689 49.4187228,46.7783433 49.4187228,47.6139674 C49.4187228,47.988248 49.281737,48.3284215 49.0652111,48.5896101 C45.7148042,52.5505221 40.7400112,55.0654723 35.1898779,55.0654723 C29.6406283,55.0654723 24.6667191,52.5514197 21.3163122,48.5905077 C21.0918322,48.3239337 20.9610329,47.9774774 20.9610329,47.606787 C20.9610329,46.7711629 21.6274024,46.0944061 22.4502009,46.0944061 C22.9009282,46.0944061 23.3048153,46.2999463 23.5761355,46.6176809 C26.383902,49.9386359 30.5456182,52.0389155 35.1898779,52.0389155 C39.8341375,52.0389155 43.9958537,49.9377383 46.804504,46.6167834 C47.0793593,46.2981512 47.4858977,46.100689 47.9286711,46.100689" id="Fill-1" fill="#00ADEE"></path>
                        </g>
                        <path d="M61.7528309,21.676514 L62.8993129,21.676514 L62.8993129,32.999259 L65.0822431,32.999259 L65.0822431,35.4552687 L62.8993129,35.4552687 L62.8993129,42.1142519 L60.1715376,42.1142519 L60.1715376,35.4552687 L51.9030242,35.4552687 L51.9030242,34.2130646 L61.7528309,21.676514 Z M60.1715376,32.999259 L60.1715376,27.1510063 L55.6530497,32.999259 L60.1715376,32.999259 Z M75.4272022,21.676514 L76.5736842,21.676514 L76.5736842,32.999259 L78.7566143,32.999259 L78.7566143,35.4552687 L76.5736842,35.4552687 L76.5736842,42.1142519 L73.8459089,42.1142519 L73.8459089,35.4552687 L65.5782829,35.4552687 L65.5782829,34.2130646 L75.4272022,21.676514 Z M73.8459089,32.999259 L73.8459089,27.1510063 L69.327421,32.999259 L73.8459089,32.999259 Z M89.1015735,21.676514 L90.2480555,21.676514 L90.2480555,32.999259 L92.4309856,32.999259 L92.4309856,35.4552687 L90.2480555,35.4552687 L90.2480555,42.1142519 L87.5202802,42.1142519 L87.5202802,35.4552687 L79.2526542,35.4552687 L79.2526542,34.2130646 L89.1015735,21.676514 Z M87.5202802,32.999259 L87.5202802,27.1510063 L83.0017923,32.999259 L87.5202802,32.999259 Z M95.5829238,21.9366807 L108.230608,21.9366807 L99.6142456,41.9374486 L96.6486551,41.9374486 L104.046659,24.6949966 L95.5829238,24.6949966 L95.5829238,21.9366807 Z M113.414623,21.676514 C115.204449,21.676514 116.682807,22.6493907 117.849699,24.5942279 C119.024576,26.5299042 119.612015,28.9895782 119.612015,31.9741658 C119.612015,35.0366203 119.024576,37.5265249 117.849699,39.4420475 C116.682807,41.3575701 115.167179,42.3157895 113.302815,42.3157895 C111.40828,42.3157895 109.888215,41.3768078 108.740846,39.4997605 C107.593476,37.6217971 107.021123,35.1328086 107.021123,32.0327949 C107.021123,28.9703405 107.612998,26.481352 108.797637,24.5649133 C109.982276,22.6402299 111.520976,21.6774301 113.414623,21.676514 Z M113.442132,24.4201727 C112.229984,24.4201727 111.376335,25.1044842 110.741865,26.4712751 C110.117157,27.8298213 109.803915,29.6729737 109.803915,32.0025643 C109.803915,34.3917002 110.11272,36.264167 110.727667,37.6217971 C111.343502,38.9794272 112.192715,39.6582423 113.274419,39.6582423 C114.356123,39.6582423 115.208885,38.9794272 115.834481,37.6217971 C116.45919,36.264167 116.771544,34.4200986 116.772431,32.090508 C116.772431,29.7499244 116.468063,27.8866183 115.862877,26.5015058 C115.265677,25.1145611 114.459058,24.4201727 113.442132,24.4201727 Z M132.995329,21.676514 L134.142699,21.676514 L134.142699,32.999259 L136.325629,32.999259 L136.325629,35.4552687 L134.142699,35.4552687 L134.142699,42.1142519 L131.414923,42.1142519 L131.414923,35.4552687 L123.147297,35.4552687 L123.147297,34.2130646 L132.995329,21.676514 Z M131.414923,32.999259 L131.414923,27.1510063 L126.895548,32.999259 L131.414923,32.999259 Z M146.6697,21.676514 L147.81707,21.676514 L147.81707,32.999259 L150,32.999259 L150,35.4552687 L147.81707,35.4552687 L147.81707,42.1142519 L145.089295,42.1142519 L145.089295,35.4552687 L136.821669,35.4552687 L136.821669,34.2130646 L146.6697,21.676514 Z M145.089295,32.999259 L145.089295,27.1510063 L140.569919,32.999259 L145.089295,32.999259 Z M23.1149676,36.7780877 L23.7751708,36.7780877 L23.7751708,41.8998893 L23.060838,41.8998893 L23.060838,37.9149426 L21.5345616,39.8955069 L19.8618692,37.9149426 L19.8618692,41.8998893 L19.1510859,41.8998893 L19.1510859,36.7780877 L19.8183881,36.7780877 L21.4697836,38.8823228 L23.1149676,36.7780877 Z M24.4770805,36.7780877 L27.2900433,36.7780877 L27.2900433,37.4312526 L25.1878638,37.4312526 L25.1878638,38.9922524 L27.2190537,38.9922524 L27.2190537,39.6490815 L25.1878638,39.6490815 L25.1878638,41.2403119 L27.3574834,41.2403119 L27.3574834,41.8925607 L24.4770805,41.8925607 L24.4770805,36.7780877 Z M27.7683357,41.8998893 L27.7683357,36.7780877 L29.0124284,36.7780877 C29.5137924,36.7780877 29.9113342,36.907255 30.2050536,37.1628412 C30.5005478,37.4202596 30.6487386,37.7665377 30.6487386,38.2044238 C30.6487386,38.5030658 30.5768617,38.7604842 30.4322204,38.9785112 C30.2875791,39.195622 30.0808218,39.3586842 29.8110614,39.4658656 C29.9699006,39.5730469 30.124303,39.7196196 30.2760432,39.9055838 C30.4268961,40.0924641 30.6398649,40.4149241 30.9149496,40.8775444 C31.0879868,41.1679416 31.2264165,41.3868847 31.3311261,41.5334574 L31.5937877,41.8998893 L30.7490114,41.8998893 L30.5316058,41.562772 L30.3505823,41.298941 L30.1305146,40.9251805 L29.8926994,40.5248537 C29.7462834,40.3159875 29.6105158,40.1474288 29.4880587,40.022842 C29.366489,39.8991713 29.2573425,39.8093954 29.1579571,39.7553467 C29.0603464,39.6994659 28.8961829,39.6719835 28.663692,39.6719835 L28.479119,39.6719835 L28.479119,41.8998893 L27.7683357,41.8998893 Z M28.6920878,37.4010219 L28.479119,37.4010219 L28.479119,39.0188187 L28.7497669,39.0188187 C29.1091517,39.0188187 29.3549532,38.9867559 29.4880587,38.9235464 C29.6229389,38.8594208 29.7267612,38.7641485 29.7995256,38.6377295 C29.8758394,38.5076462 29.9139963,38.3610734 29.9139963,38.1970952 C29.9139963,38.0358652 29.8722899,37.8902085 29.7888771,37.7610413 C29.7063517,37.6282097 29.5892189,37.5356856 29.4374786,37.482553 C29.2884005,37.4285043 29.0408242,37.401938 28.6920878,37.4010219 Z M34.5797876,36.7780877 L35.4671576,36.7780877 L33.3152854,39.2056989 L35.9969175,41.8998893 L35.0234726,41.8998893 L32.4909187,39.3696772 L32.4909187,41.8998893 L31.7810227,41.8998893 L31.7810227,36.7780877 L32.4909187,36.7780877 L32.4909187,39.1205035 L34.5797876,36.7780877 Z M36.1770536,36.7780877 L38.9900164,36.7780877 L38.9900164,37.4312526 L36.8878369,37.4312526 L36.8878369,38.9922524 L38.9190268,38.9922524 L38.9190268,39.6490815 L36.8878369,39.6490815 L36.8878369,41.2403119 L39.0574565,41.2403119 L39.0574565,41.8925607 L36.1770536,41.8925607 L36.1770536,36.7780877 Z M39.1914494,36.7716752 L43.4676853,36.7716752 L40.2953376,41.2476406 L43.4676853,41.2476406 L43.4676853,41.8998893 L38.989129,41.8998893 L42.1676882,37.4230078 L39.1914494,37.4230078 L39.1914494,36.7716752 Z M43.7862511,41.8998893 L44.4961471,41.8998893 L44.4961471,36.7780877 L43.7862511,36.7780877 L43.7862511,41.8998893 Z M44.1403117,35.4699259 C44.2618814,35.4699259 44.3648163,35.5129817 44.4500038,35.597261 C44.5351913,35.6833725 44.5786725,35.7887217 44.5786725,35.9133085 C44.5786725,36.0360632 44.5351913,36.137748 44.4500038,36.2211113 C44.366591,36.3044745 44.2645435,36.3456981 44.1403117,36.3456981 C44.0205168,36.3456981 43.9175818,36.3044745 43.8359438,36.2211113 C43.752531,36.137748 43.711712,36.0360632 43.711712,35.9133085 C43.711712,35.7887217 43.752531,35.6833725 43.8359438,35.597261 C43.9175818,35.5129817 44.0205168,35.4699259 44.1403117,35.4699259 Z M28.2155702,34.4503293 C28.325604,34.5437694 28.4249895,34.6051467 28.4959791,34.6958386 C28.5696308,34.7865305 28.606013,34.8891314 28.606013,35.0036414 C28.606013,35.1896056 28.534136,35.3471713 28.3894947,35.4763385 C28.2448534,35.608254 28.0141372,35.6742117 27.6973461,35.6742117 C27.6094965,35.6742117 27.5331827,35.6687152 27.4666299,35.6568062 L27.4666299,35.2427382 L27.6937966,35.2564794 C27.8295642,35.2564794 27.9342739,35.2299131 28.0105877,35.1758644 C28.0771404,34.9926484 28.0522941,34.9440962 28.0026014,34.9047048 C27.9555708,34.8653134 27.8659464,34.8460757 27.7363904,34.8460757 L27.8038305,34.424679 C27.4266983,34.3807072 27.0992587,34.274442 26.8206246,34.1049672 C26.4319565,33.873199 26.1258139,33.5571516 25.9004219,33.1559086 C25.6785794,32.7528336 25.5667708,32.3158636 25.5667708,31.8477468 C25.5667708,31.1011419 25.8241081,30.4745434 26.3370079,29.9670352 C26.8534573,29.4576949 27.4897015,29.2039409 28.243966,29.2039409 C28.7648522,29.2039409 29.3443048,29.3441011 29.980549,29.6253375 L29.980549,30.4140821 C29.4010964,30.0714683 28.834067,29.9010775 28.2794608,29.9010775 C27.711544,29.9010775 27.2385758,30.0870417 26.8632183,30.4571379 C26.4887482,30.826318 26.3024005,31.2898543 26.3024005,31.8477468 C26.3024005,32.4093037 26.4860861,32.8710079 26.8561194,33.2328593 C27.2252653,33.5956269 27.6973461,33.7760946 28.2732492,33.7760946 C28.8739987,33.7760946 29.4605502,33.5846339 30.0346786,33.2035448 L30.0346786,34.010611 C29.5137924,34.3037565 28.9121556,34.4503293 28.2306555,34.4503293 L28.2155702,34.4503293 Z M32.1253223,29.2405841 L32.6257989,29.2405841 L34.8459986,34.3917002 L34.1174679,34.3917002 L33.4563772,32.8746722 L31.3470988,32.8746722 L30.7223903,34.3917002 L29.994747,34.3917002 L32.1253223,29.2405841 Z M33.1653199,32.2215074 L32.3666869,30.3655299 L31.6248456,32.2215074 L33.1653199,32.2215074 Z M37.415822,31.8688167 L39.0814155,31.8688167 L39.0814155,34.0390095 C38.4709049,34.3129173 37.8648313,34.4503293 37.2631944,34.4503293 C36.4423772,34.4503293 35.784836,34.2039038 35.2932331,33.7101369 C34.8025175,33.2136217 34.5576034,32.6025965 34.5576034,31.8761453 C34.5576034,31.1121349 34.8122785,30.4745434 35.3207415,29.9670352 C35.8300919,29.4576949 36.4681109,29.2039409 37.2347986,29.2039409 C37.5152075,29.2039409 37.7796437,29.2350876 38.0307694,29.2992132 C38.2818951,29.3605905 38.5986862,29.4741844 38.9829174,29.6399948 L38.9829174,30.3884319 C38.3910416,30.032993 37.8036027,29.8561896 37.2206006,29.8561896 C36.6784176,29.8561896 36.2223094,30.0476503 35.8505014,30.4287394 C35.4786934,30.8098286 35.2932331,31.2779453 35.2932331,31.8330896 C35.2932331,32.4148002 35.4786934,32.8893295 35.8505014,33.2594257 C36.2223094,33.6276897 36.7006018,33.8118217 37.2853787,33.8118217 C37.569337,33.8118217 37.9091997,33.745864 38.3040794,33.6102842 L38.3715195,32.5219815 L37.415822,32.5219815 L37.415822,31.8688167 Z M38.0875611,27.8508912 C38.0307694,28.1742673 37.9127492,28.4151962 37.7326131,28.5764263 C37.5542518,28.7376563 37.3288598,28.8191874 37.0537751,28.8191874 C36.7937757,28.8191874 36.5710458,28.7358241 36.3864729,28.5690976 C36.2018999,28.4014551 36.082105,28.1614422 36.0279754,27.8508912 L36.5142542,27.8508912 C36.5524111,28.0093729 36.6171891,28.1275472 36.7094755,28.2026658 C36.801762,28.2787004 36.9233317,28.3162596 37.0724099,28.3162596 C37.2090648,28.3162596 37.3199861,28.2814486 37.406061,28.2099944 C37.4930232,28.136708 37.5551391,28.0167016 37.593296,27.8508912 L38.0875611,27.8508912 Z M39.7735641,34.3917002 L39.7735641,29.2698986 L41.0167694,29.2698986 C41.5181334,29.2698986 41.9165625,29.3981498 42.210282,29.6546521 C42.5057762,29.9111544 42.653967,30.2583486 42.653967,30.6962347 C42.653967,30.9939606 42.58209,31.251379 42.4365614,31.4694059 C42.29192,31.6874329 42.0860502,31.8486629 41.8154024,31.9576764 C41.9742416,32.0648577 42.1295313,32.2114305 42.2812716,32.3964786 C42.4330119,32.5824428 42.6459807,32.906735 42.920178,33.3684391 C43.0932151,33.6597525 43.2316448,33.8777794 43.3354671,34.0243522 L43.5981286,34.3917002 L42.7533524,34.3917002 L42.5368342,34.0545828 L42.3558107,33.7907519 L42.1357429,33.4160753 L41.8970404,33.0166645 C41.7506244,32.8059662 41.6157441,32.6392397 41.4923997,32.5146529 C41.3717174,32.3891499 41.2616835,32.3012063 41.1622981,32.2462415 C41.0655747,32.1912767 40.9005239,32.1619622 40.668033,32.1619622 L40.48346,32.1619622 L40.48346,34.3917002 L39.7735641,34.3917002 Z M40.6964288,29.8937489 L40.48346,29.8937489 L40.48346,31.5097134 L40.7541079,31.5097134 C41.1134927,31.5097134 41.3601816,31.4785667 41.4923997,31.4144412 C41.6272799,31.3512317 41.7319896,31.2559594 41.8056413,31.1277082 C41.8801804,30.9994571 41.9183373,30.8528843 41.9183373,30.688906 C41.9183373,30.5267599 41.8775183,30.3820193 41.7949929,30.251936 C41.7115801,30.1209366 41.5935599,30.0274965 41.442707,29.9743639 C41.2936288,29.9203152 41.0451652,29.8937489 40.6964288,29.8937489 Z M43.7862511,34.3917002 L44.4961471,34.3917002 L44.4961471,29.2698986 L43.7862511,29.2698986 L43.7862511,34.3917002 Z M22.2728535,21.7617095 L22.9339441,21.7617095 L22.9339441,26.883511 L22.2196113,26.883511 L22.2196113,22.8976483 L20.6933349,24.8772965 L19.0206425,22.8976483 L19.0206425,26.883511 L18.3098592,26.883511 L18.3098592,21.7617095 L18.9771614,21.7617095 L20.6285569,23.8659445 L22.2728535,21.7617095 Z M23.6358537,21.7617095 L26.4488165,21.7617095 L26.4488165,22.4139582 L24.3466371,22.4139582 L24.3466371,23.9758741 L26.3778269,23.9758741 L26.3778269,24.6317871 L24.3466371,24.6317871 L24.3466371,26.2230175 L26.5162567,26.2230175 L26.5162567,26.8761824 L23.6358537,26.8761824 L23.6358537,21.7617095 Z M26.912911,26.8761824 L26.912911,21.7617095 L28.5856034,21.7617095 C29.260892,21.7617095 29.7942013,21.8661425 30.1881936,22.0768409 C30.5804111,22.2838749 30.8936527,22.5916777 31.1252563,22.9965849 C31.3568599,23.4024082 31.4731053,23.8448747 31.4731053,24.3239844 C31.4731053,24.6665982 31.4092147,24.9936386 31.2814334,25.3069379 C31.1536521,25.619321 30.9717413,25.8941449 30.7348135,26.1314096 C30.4925615,26.3760029 30.2121526,26.5601349 29.8926994,26.6856378 C29.7063517,26.7607563 29.5342019,26.8120568 29.3780248,26.8395392 C29.2218477,26.8633573 28.9236914,26.8761824 28.4826685,26.8761824 L26.912911,26.8761824 Z M28.5110644,22.4139582 L27.6236944,22.4139582 L27.6236944,26.2230175 L28.5323612,26.2230175 C28.8881966,26.2230175 29.1632813,26.1991995 29.3602774,26.1497312 C29.5563862,26.0984307 29.7196623,26.0352212 29.8501057,25.9591866 C29.9823238,25.8813198 30.1030061,25.7851315 30.2121526,25.6724537 C30.5626637,25.3069379 30.738363,24.8434015 30.738363,24.2836768 C30.738363,23.733113 30.5582269,23.28515 30.1979547,22.9379558 C30.0657366,22.8078725 29.9131089,22.7025233 29.7400718,22.61916 C29.5688094,22.5357968 29.407308,22.480832 29.253793,22.4542657 C29.0993907,22.4267833 28.8527018,22.4148743 28.5110644,22.4139582 Z M32.0019778,26.883511 L32.7118738,26.883511 L32.7118738,21.7617095 L32.0019778,21.7617095 L32.0019778,26.883511 Z M32.3569258,20.4526316 C32.4776081,20.4526316 32.5805431,20.4947712 32.6657306,20.5808827 C32.7509181,20.6660781 32.7935119,20.7714273 32.7935119,20.8950981 C32.7935119,21.0178527 32.7509181,21.1213698 32.6657306,21.2038169 C32.5832052,21.2871802 32.4802703,21.3284038 32.3569258,21.3284038 C32.2353561,21.3284038 32.134196,21.2871802 32.0507832,21.2038169 C31.9682578,21.1213698 31.9274388,21.0178527 31.9274388,20.8950981 C31.9274388,20.7714273 31.9682578,20.6660781 32.0507832,20.5808827 C32.134196,20.4947712 32.2353561,20.4526316 32.3569258,20.4526316 Z M33.4075719,26.883511 L33.4075719,21.7543808 L34.9799915,21.7543808 C35.453847,21.7543808 35.8309793,21.8862963 36.1131629,22.1501272 C36.3953466,22.4139582 36.535551,22.768481 36.535551,23.2127797 C36.535551,23.5114217 36.4636741,23.7752526 36.3190328,24.0051886 C36.1743915,24.2351246 35.9765079,24.4027672 35.7262696,24.5072003 C35.4751439,24.6098012 35.1148717,24.6620178 34.6463404,24.6620178 L34.12013,24.6620178 L34.12013,26.883511 L33.4075719,26.883511 Z M34.8557597,22.4066296 L34.12013,22.4066296 L34.12013,24.0088529 L34.8983534,24.0088529 C35.187636,24.0088529 35.4094785,23.9392309 35.5656557,23.7990707 C35.7227201,23.6579944 35.8008087,23.4555408 35.8008087,23.1944581 C35.8008087,22.6695444 35.4857924,22.4066296 34.8557597,22.4066296 Z M39.2233947,21.6884231 C39.9909697,21.6884231 40.6281013,21.9385128 41.1383391,22.4396084 C41.6494642,22.940704 41.9050267,23.5682186 41.9050267,24.3239844 C41.9050267,25.078834 41.6468021,25.7045164 41.1312401,26.2001156 C40.6165655,26.6947986 39.9678981,26.941224 39.1843504,26.941224 C38.4362975,26.941224 37.8124764,26.6947986 37.3128871,26.2001156 C36.8150726,25.7045164 36.566609,25.0843305 36.566609,24.3386416 C36.566609,23.5737151 36.8177347,22.940704 37.3199861,22.4396084 C37.8213501,21.9385128 38.4558197,21.6884231 39.2233947,21.6884231 Z M39.2526779,22.3837276 C38.6838737,22.3837276 38.2162298,22.5687757 37.849746,22.9342915 C37.4841495,23.3007233 37.3022387,23.7688401 37.3022387,24.3386416 C37.3022387,24.8910377 37.4850369,25.3509097 37.8524081,25.7173416 C38.2188919,26.0846895 38.6785495,26.2669894 39.2304936,26.2669894 C39.7842125,26.2669894 40.2465323,26.0810252 40.6156782,25.7063486 C40.9874862,25.3325881 41.1729465,24.8663035 41.1738339,24.3093271 C41.1738339,23.7670079 40.9874862,23.3108002 40.6156782,22.9425362 C40.2465323,22.5706078 39.7913115,22.3837276 39.2526779,22.3837276 Z M42.4081655,21.7617095 L43.1189489,21.7617095 L43.1189489,26.2156889 L45.3524591,26.2156889 L45.3524591,26.883511 L42.4081655,26.883511 L42.4081655,21.7617095 Z M48.451155,42.1930348 L48.89484,42.1930348 L48.89484,21.8102617 L48.451155,21.8102617 L48.451155,42.1930348 Z" id="Fill-4" fill="#23275E"></path>
                    </g>
                </g>
            </g>
        </g>
    </g>
</svg>